#!OML:ASF I:\Actors\actors\Patient Classification 2\Patient 1\Session 1\actor1.ASF
:FULLY-SPECIFIED
:DEGREES
1105
root -0.970988 18.8085 4.89634 23.8875 7.82478 -7.16421
lowerback 30.1197 1.13778 -0.956209
upperback 16.3326 1.23866 -0.978926
thorax 1.99133 0.620376 -0.86722
lowerneck 12.6998 -15.2418 -20.3288
upperneck 30.2405 -22.159 7.86372
head 11.2679 -11.6796 4.37009
rclavicle -1.19271e-014 2.0276e-014
rhumerus 25.3764 26.5313 -74.7937
rradius 41.3179
rwrist 4.21874
rhand 5.05118 -399.905
rfingers 7.12502
rthumb 30.4188 -427.416
lclavicle -1.19271e-014 2.0276e-014
lhumerus -38.4327 -3.81597 82.6412
lradius 84.2689
lwrist 21.4147
lhand -13.1565 -25.728
lfingers 7.12502
lthumb 12.9423 3.85059
rfemur -23.3796 -5.44428 25.4833
rtibia 5.05264
rfoot -13.9755 -13.9899
rtoes -6.75736
lfemur -41.3182 -1.29161 -2.74594
ltibia 31.8655
lfoot -15.6052 8.59705
ltoes -56.4712
1106
root -0.974097 18.8112 4.90617 23.9015 7.64596 -7.18749
lowerback 30.0774 1.09356 -0.821714
upperback 16.3682 1.21094 -1.08496
thorax 2.05661 0.62118 -1.05206
lowerneck 12.5898 -15.2453 -20.0822
upperneck 30.7492 -22.0622 7.52814
head 11.4009 -11.6295 4.21978
rclavicle -1.51076e-014 6.75868e-015
rhumerus 24.1348 28.6411 -74.4084
rradius 41.9132
rwrist 4.04066
rhand 4.69363 -400.059
rfingers 7.12502
rthumb 30.0777 -427.632
lclavicle -1.51076e-014 6.75868e-015
lhumerus -38.0879 -4.03611 82.5745
lradius 84.1352
lwrist 21.4245
lhand -13.1825 -26.0027
lfingers 7.12502
lthumb 12.9173 3.57747
rfemur -23.3926 -5.2623 25.4503
rtibia 5.10971
rfoot -13.987 -13.9919
rtoes -6.65802
lfemur -41.2151 -1.33728 -2.68449
ltibia 31.8447
lfoot -15.6851 8.7593
ltoes -56.5054
1107
root -0.977844 18.8146 4.91762 23.9008 7.43666 -7.13337
lowerback 29.9957 1.06457 -0.809926
upperback 16.4041 1.17419 -1.19862
thorax 2.13728 0.609822 -1.17233
lowerneck 12.4876 -15.2453 -19.8855
upperneck 31.184 -21.976 7.23775
head 11.5184 -11.5873 4.09063
rclavicle -1.59028e-015 -5.76476e-014
rhumerus 23.0167 30.9559 -73.7743
rradius 42.7124
rwrist 4.01254
rhand 4.56043 -400.2
rfingers 7.12502
rthumb 29.9506 -427.796
lclavicle -1.59028e-015 -5.76476e-014
lhumerus -37.6443 -4.26237 82.4933
lradius 83.8366
lwrist 21.415
lhand -13.4214 -26.0047
lfingers 7.12502
lthumb 12.687 3.58993
rfemur -23.3284 -5.09014 25.3235
rtibia 5.05521
rfoot -13.9469 -14.056
rtoes -6.59881
lfemur -41.0769 -1.37056 -2.73044
ltibia 31.8195
lfoot -15.7635 8.88893
ltoes -56.4819
1108
root -0.983116 18.8181 4.92889 23.8413 7.20644 -7.11709
lowerback 29.9375 1.05311 -0.832693
upperback 16.4109 1.14999 -1.28804
thorax 2.17229 0.600344 -1.25033
lowerneck 12.375 -15.2442 -19.7391
upperneck 31.5835 -21.9115 7.01694
head 11.644 -11.5573 3.98788
rclavicle 5.56597e-015 -1.43125e-014
rhumerus 22.0449 33.6104 -72.7878
rradius 43.7601
rwrist 3.99206
rhand 4.44927 -400.323
rfingers 7.12502
rthumb 29.8445 -427.938
lclavicle 5.56597e-015 -1.43125e-014
lhumerus -37.3364 -4.42035 82.461
lradius 83.748
lwrist 21.5111
lhand -13.7863 -25.5004
lfingers 7.12502
lthumb 12.3351 4.11569
rfemur -23.1839 -4.8848 25.2266
rtibia 4.95902
rfoot -13.893 -14.1157
rtoes -6.35306
lfemur -40.8815 -1.25685 -2.80415
ltibia 31.7952
lfoot -15.8059 8.94512
ltoes -56.5534
1109
root -0.988534 18.8216 4.94065 23.6974 6.96301 -7.18974
lowerback 29.9599 1.05117 -0.796025
upperback 16.3632 1.14771 -1.36946
thorax 2.10916 0.604584 -1.36121
lowerneck 12.2889 -15.2626 -19.5075
upperneck 31.9206 -21.8703 6.77111
head 11.7279 -11.5327 3.86537
rclavicle -8.74653e-015 1.39149e-014
rhumerus 21.1483 36.4868 -71.5926
rradius 45.0851
rwrist 3.89327
rhand 4.92538 -400.518
rfingers 7.12502
rthumb 30.2988 -428.051
lclavicle -8.74653e-015 1.39149e-014
lhumerus -37.2364 -4.59632 82.4366
lradius 83.9219
lwrist 21.8862
lhand -14.1764 -24.6315
lfingers 7.12502
lthumb 11.9591 5.00689
rfemur -22.9428 -4.63548 25.2062
rtibia 4.85287
rfoot -13.8238 -14.1582
rtoes -6.27262
lfemur -40.5923 -1.13935 -2.78604
ltibia 31.7855
lfoot -15.8798 9.05103
ltoes -56.6515
1110
root -0.993659 18.8243 4.95368 23.5349 6.7191 -7.25381
lowerback 29.97 1.04323 -0.769715
upperback 16.2842 1.13507 -1.45935
thorax 2.01449 0.603312 -1.47278
lowerneck 12.2052 -15.2891 -19.2481
upperneck 32.1966 -21.8441 6.53072
head 11.7851 -11.5127 3.74001
rclavicle 5.56597e-015 4.77083e-015
rhumerus 20.3926 39.4464 -70.2766
rradius 46.4973
rwrist 3.81626
rhand 5.43565 -400.763
rfingers 7.12502
rthumb 30.7854 -428.205
lclavicle 5.56597e-015 4.77083e-015
lhumerus -37.1913 -4.72299 82.353
lradius 84.0099
lwrist 22.0428
lhand -14.4272 -24.0505
lfingers 7.12502
lthumb 11.7172 5.60182
rfemur -22.6509 -4.39415 25.1704
rtibia 4.71045
rfoot -13.7467 -14.2024
rtoes -6.47824
lfemur -40.2847 -1.06414 -2.75984
ltibia 31.7987
lfoot -15.9621 9.15249
ltoes -56.6675
1111
root -0.997164 18.8252 4.96727 23.3623 6.47694 -7.28258
lowerback 29.9143 1.02469 -0.749865
upperback 16.2115 1.10969 -1.5522
thorax 1.95546 0.59567 -1.57916
lowerneck 12.131 -15.3141 -19.0635
upperneck 32.3853 -21.8542 6.41389
head 11.8366 -11.5103 3.66452
rclavicle -1.59028e-015 -1.51076e-014
rhumerus 19.8434 42.2899 -68.8739
rradius 47.8105
rwrist 4.24133
rhand 4.87011 -400.628
rfingers 7.12502
rthumb 30.2461 -428.17
lclavicle -1.59028e-015 -1.51076e-014
lhumerus -37.0579 -4.78336 82.2373
lradius 83.8806
lwrist 21.874
lhand -14.5753 -23.7859
lfingers 7.12502
lthumb 11.5744 5.87445
rfemur -22.3272 -4.17495 25.0912
rtibia 4.5425
rfoot -13.6834 -14.2488
rtoes -6.8216
lfemur -39.9676 -0.993596 -2.77929
ltibia 31.823
lfoot -16.0733 9.18901
ltoes -56.5829
1112
root -1.0002 18.8242 4.98011 23.153 6.2246 -7.32715
lowerback 29.8364 1.01808 -0.692041
upperback 16.1342 1.10793 -1.64183
thorax 1.90207 0.601949 -1.70956
lowerneck 12.1274 -15.3961 -18.831
upperneck 32.4643 -21.9395 6.27601
head 11.832 -11.5394 3.57237
rclavicle -1.35174e-014 1.90833e-014
rhumerus 19.4225 44.8353 -67.4795
rradius 49.1406
rwrist 4.74928
rhand 4.51473 -399.877
rfingers 7.12502
rthumb 29.907 -427.481
lclavicle -1.35174e-014 1.90833e-014
lhumerus -36.8842 -4.91818 82.0916
lradius 83.6722
lwrist 21.7619
lhand -14.6557 -23.4158
lfingers 7.12502
lthumb 11.4968 6.24897
rfemur -21.9949 -3.94214 25.023
rtibia 4.41989
rfoot -13.6508 -14.2755
rtoes -6.90676
lfemur -39.6166 -0.843346 -2.82383
ltibia 31.8478
lfoot -16.1712 9.17571
ltoes -56.5205
1113
root -1.00369 18.8239 4.99178 22.9096 5.94726 -7.36421
lowerback 29.7518 1.01332 -0.727426
upperback 16.0384 1.08721 -1.69794
thorax 1.82677 0.590108 -1.74475
lowerneck 12.0609 -15.4815 -18.6711
upperneck 32.6037 -22.0042 6.04239
head 11.8587 -11.5701 3.4502
rclavicle 1.59028e-015 -4.01545e-014
rhumerus 19.2796 47.4279 -65.9145
rradius 50.5402
rwrist 4.51179
rhand 4.51508 -399.598
rfingers 7.12502
rthumb 29.9073 -427.202
lclavicle 1.59028e-015 -4.01545e-014
lhumerus -36.8129 -4.94713 81.9725
lradius 83.4399
lwrist 21.6299
lhand -14.6953 -22.9646
lfingers 7.12502
lthumb 11.4586 6.70224
rfemur -21.6321 -3.6912 24.9391
rtibia 4.29601
rfoot -13.6471 -14.3017
rtoes -6.49454
lfemur -39.228 -0.592423 -2.92967
ltibia 31.8561
lfoot -16.1578 9.15333
ltoes -56.6602
1114
root -1.00745 18.8242 5.00265 22.6241 5.63699 -7.38904
lowerback 29.6621 1.01955 -0.845742
upperback 15.9323 1.06087 -1.73662
thorax 1.73982 0.568717 -1.71188
lowerneck 12.0035 -15.5253 -18.5999
upperneck 32.7062 -22.0442 5.89354
head 11.8882 -11.595 3.3741
rclavicle 1.27222e-014 4.77083e-015
rhumerus 19.3561 50.0234 -64.2177
rradius 51.9903
rwrist 3.87151
rhand 4.3222 -399.753
rfingers 7.12502
rthumb 29.7233 -427.39
lclavicle 1.27222e-014 4.77083e-015
lhumerus -36.7954 -4.91562 81.878
lradius 83.1528
lwrist 21.4686
lhand -14.6665 -22.6966
lfingers 7.12502
lthumb 11.4864 6.96875
rfemur -21.1329 -3.42059 24.8248
rtibia 3.97568
rfoot -13.5339 -14.4025
rtoes -6.29979
lfemur -38.7672 -0.406749 -3.02426
ltibia 31.8408
lfoot -16.1816 9.19517
ltoes -56.7934
